<svg xmlns="http://www.w3.org/2000/svg" height="488.00002" width="488" style=""><rect id="backgroundrect" width="100%" height="100%" x="0" y="0" fill="none" stroke="none"/> <g class="currentLayer" style=""><title>Layer 1</title><g id="svg_1" class="selected" fill="#eb1a1a" fill-opacity="1" stroke="#484848" stroke-opacity="1"><path d="m269.6973675590362,197.2144597820452 l-14.005870819091797,174.20704746246338 h-14.005870819091797 l-14.005870819091797,-174.20704746246338 zm0,0 " fill="#eb1a1a" data-original="#ADABAC" class="active-path" style="" data-old_color="#adabac" id="svg_2" fill-opacity="1" stroke="#484848" stroke-opacity="1"/><path d="m303.51867263289114,67.96406972924979 v101.15247917175293 h-109.6636435389328 v-101.15247917175293 zm0,0 " fill="#eb1a1a" data-original="#EE3446" class="" style="" data-old_color="#ee3446" id="svg_3" fill-opacity="1" stroke="#484848" stroke-opacity="1"/><path d="m359.54215590925827,197.2144597820452 h-221.71061009166718 c13.027922268918752,-17.4322291043942 36.50211716068864,-28.100654642040016 61.836467645986076,-28.09791088104248 h98.04109573364258 c25.327510368136167,0.0027437609975337995 48.80170613527298,10.668425537645817 61.83304671203852,28.09791088104248 zm0,0 " fill="#eb1a1a" data-original="#AD2943" class="" data-old_color="#ad2943" style="" id="svg_4" fill-opacity="1" stroke="#484848" stroke-opacity="1"/><path d="m158.84035204622882,39.866158848207306 h179.6929976343918 c0,15.516961702203274 -15.674539022147655,28.09791088104248 -35.01467704772949,28.09791088104248 h-109.6636435389328 c-19.340138025581837,0 -35.01467704772949,-12.580949178839207 -35.01467704772949,-28.09791088104248 zm0,0 " fill="#eb1a1a" data-original="#AD2943" class="" data-old_color="#ad2943" style="" id="svg_5" fill-opacity="1" stroke="#484848" stroke-opacity="1"/><path d="m365.63553080974003,199.98034788439782 c1.2412422896003723,-1.7616069520602227 1.2070487067294122,-3.923829702775717 -0.09232407433867457,-5.660741400962591 c-12.026036810148955,-15.92306361795807 -32.125282529722455,-26.832955577237847 -55.02159869296432,-29.86774981854308 v-91.3730890955776 c20.191568918545247,-2.754912355914712 34.97706428164482,-16.7764280791173 35.01467704772949,-33.212608721107244 c0,-3.1033924809302094 -3.135591465998888,-5.619582176208496 -7.002935409545898,-5.619582176208496 h-179.6998360008192 c-3.8673439435470107,0 -7.002935409545898,2.516189695278287 -7.002935409545898,5.619582176208496 c0.03761364145159723,16.436180641989946 14.823108129184245,30.457696365192533 35.01467704772949,33.212608721107244 v91.3730890955776 c-22.896316163241863,3.0347942413052325 -42.99556188281536,13.944686200585007 -55.025017876178026,29.86774981854308 c-1.2993727810680866,1.7369116981868746 -1.3335663639390467,3.8991344489023683 -0.09232407433867457,5.660741400962591 c1.2446623481810093,1.7643514155055287 3.573275804462433,2.853694073855877 6.0967940836954115,2.853694073855877 h83.28295646235347 l13.575026597789526,168.9469211577083 c0.23593852298378945,2.963451538234949 3.3031419478738306,5.265613826750159 7.002935409545898,5.260126304755092 h14.005870819091797 c3.6963734030914304,0.005487521995067599 6.763576827981471,-2.2966747665201424 7.002935409545898,-5.260126304755092 l13.57160653920889,-168.9469211577083 h83.28295646235347 c2.5235182792329787,-0.0027437609975337995 4.845292493720055,-1.094830882793188 6.086535658687353,-2.853694073855877 zm-198.88268196953416,-154.494606859982 h163.93981214612722 c-3.2142379321157932,9.916587257873058 -14.3614886328578,16.845027021190045 -27.12953547019601,16.85874652862549 h-109.71493478860617 c-12.757789287697076,-0.024695253873348245 -23.88794232163668,-6.950391256192804 -27.09534188732505,-16.85874652862549 zm129.76972762493372,28.09791088104248 v89.91331481933594 h-95.67145032806278 v-89.91331481933594 zm-47.4031709134388,292.2182731628418 h-0.8753669261932373 l-13.099729493241309,-162.9678831100464 h27.085084337683917 zm20.577962007335422,-174.20704746246338 h-117.91124129665971 c12.350880224257708,-10.709584762399912 29.69408744946122,-16.817587303871395 47.881887201200726,-16.85874652862549 h98.04109573364258 c18.184379693158867,0.041159224754095086 35.52758691836238,6.149161766225577 47.87846714262009,16.85874652862549 zm0,0 " data-original="#000000" class="" style="" id="svg_6" fill="#eb1a1a" fill-opacity="1" stroke="#484848" stroke-opacity="1"/></g></g></svg>